<svg width="48" height="48" viewBox="0 0 48 48" fill="none" xmlns="http://www.w3.org/2000/svg">
<rect x="0.75" y="0.75" width="46.5" height="46.5" rx="1.25" fill="#DDD6FE"/>
<rect x="0.75" y="0.75" width="46.5" height="46.5" rx="1.25" stroke="#1E1B4B" stroke-width="1.5"/>
<path d="M10.666 26.59H13.762C13.834 27.046 14.032 27.448 14.356 27.796C14.692 28.132 15.136 28.396 15.688 28.588C16.252 28.768 16.9 28.858 17.632 28.858C18.7 28.858 19.54 28.708 20.152 28.408C20.776 28.096 21.088 27.664 21.088 27.112C21.088 26.68 20.908 26.35 20.548 26.122C20.2 25.882 19.546 25.708 18.586 25.6L15.868 25.294C14.116 25.102 12.844 24.694 12.052 24.07C11.272 23.434 10.882 22.552 10.882 21.424C10.882 20.536 11.14 19.78 11.656 19.156C12.184 18.532 12.922 18.058 13.87 17.734C14.818 17.398 15.934 17.23 17.218 17.23C18.466 17.23 19.576 17.416 20.548 17.788C21.52 18.148 22.294 18.658 22.87 19.318C23.446 19.966 23.758 20.728 23.806 21.604H20.71C20.65 21.208 20.47 20.866 20.17 20.578C19.882 20.278 19.48 20.05 18.964 19.894C18.448 19.726 17.842 19.642 17.146 19.642C16.174 19.642 15.4 19.786 14.824 20.074C14.248 20.362 13.96 20.77 13.96 21.298C13.96 21.706 14.128 22.024 14.464 22.252C14.812 22.468 15.418 22.63 16.282 22.738L19.108 23.08C20.356 23.212 21.346 23.428 22.078 23.728C22.822 24.016 23.35 24.406 23.662 24.898C23.986 25.39 24.148 26.014 24.148 26.77C24.148 27.67 23.872 28.462 23.32 29.146C22.78 29.818 22.018 30.34 21.034 30.712C20.05 31.084 18.898 31.27 17.578 31.27C16.234 31.27 15.052 31.078 14.032 30.694C13.012 30.298 12.208 29.752 11.62 29.056C11.032 28.348 10.714 27.526 10.666 26.59ZM29.2644 17.5V29.65L27.8784 28.3H38.0124V31H26.2044V17.5H29.2644Z" fill="#1E1B4B"/>
</svg>
