<svg width="32" height="32" viewBox="0 0 32 32" fill="none" xmlns="http://www.w3.org/2000/svg">
<rect x="0.75" y="0.75" width="30.5" height="30.5" fill="#DDD6FE"/>
<rect x="0.75" y="0.75" width="30.5" height="30.5" stroke="#1E1B4B" stroke-width="1.5"/>
<path d="M6.4625 17.9375H8.6125C8.6625 18.2542 8.8 18.5333 9.025 18.775C9.25833 19.0083 9.56667 19.1917 9.95 19.325C10.3417 19.45 10.7917 19.5125 11.3 19.5125C12.0417 19.5125 12.625 19.4083 13.05 19.2C13.4833 18.9833 13.7 18.6833 13.7 18.3C13.7 18 13.575 17.7708 13.325 17.6125C13.0833 17.4458 12.6292 17.325 11.9625 17.25L10.075 17.0375C8.85833 16.9042 7.975 16.6208 7.425 16.1875C6.88333 15.7458 6.6125 15.1333 6.6125 14.35C6.6125 13.7333 6.79167 13.2083 7.15 12.775C7.51667 12.3417 8.02917 12.0125 8.6875 11.7875C9.34583 11.5542 10.1208 11.4375 11.0125 11.4375C11.8792 11.4375 12.65 11.5667 13.325 11.825C14 12.075 14.5375 12.4292 14.9375 12.8875C15.3375 13.3375 15.5542 13.8667 15.5875 14.475H13.4375C13.3958 14.2 13.2708 13.9625 13.0625 13.7625C12.8625 13.5542 12.5833 13.3958 12.225 13.2875C11.8667 13.1708 11.4458 13.1125 10.9625 13.1125C10.2875 13.1125 9.75 13.2125 9.35 13.4125C8.95 13.6125 8.75 13.8958 8.75 14.2625C8.75 14.5458 8.86667 14.7667 9.1 14.925C9.34167 15.075 9.7625 15.1875 10.3625 15.2625L12.325 15.5C13.1917 15.5917 13.8792 15.7417 14.3875 15.95C14.9042 16.15 15.2708 16.4208 15.4875 16.7625C15.7125 17.1042 15.825 17.5375 15.825 18.0625C15.825 18.6875 15.6333 19.2375 15.25 19.7125C14.875 20.1792 14.3458 20.5417 13.6625 20.8C12.9792 21.0583 12.1792 21.1875 11.2625 21.1875C10.3292 21.1875 9.50833 21.0542 8.8 20.7875C8.09167 20.5125 7.53333 20.1333 7.125 19.65C6.71667 19.1583 6.49583 18.5875 6.4625 17.9375ZM19.378 11.625V20.0625L18.4155 19.125H25.453V21H17.253V11.625H19.378Z" fill="#1E1B4B"/>
</svg>
